<?xml version="1.0" encoding="utf-8"?>
<!-- Generator: Adobe Illustrator 22.1.0, SVG Export Plug-In . SVG Version: 6.00 Build 0)  -->
<svg version="1.1" id="Layer_1" xmlns="http://www.w3.org/2000/svg" xmlns:xlink="http://www.w3.org/1999/xlink" x="0px" y="0px"
	 viewBox="0 0 1338 768" style="enable-background:new 0 0 1338 768;" xml:space="preserve">
<style type="text/css">
	.st0{fill:#53565A;}
	.st1{fill:#0AD2F1;}
	.st2{fill:#FFFFFF;}
</style>
<g>
	<g>
		<g>
			<path class="st0" d="M161.8,142.1V27.9h27.7v114.2H161.8z"/>
			<path class="st0" d="M339.1,84.7c0,10-1.9,18.6-5.6,25.9s-8.6,13.2-14.7,17.9c-6.1,4.7-12.9,8.1-20.6,10.3
				c-7.6,2.2-15.4,3.3-23.2,3.3h-42.6V27.9h41.3c8.1,0,16,0.9,23.9,2.8s14.8,5,21,9.4c6.1,4.4,11.1,10.2,14.8,17.5
				C337.2,64.9,339.1,74,339.1,84.7z M310.3,84.7c0-6.5-1-11.8-3.1-16c-2.1-4.2-4.9-7.6-8.4-10.2c-3.5-2.5-7.5-4.3-11.9-5.4
				s-9.1-1.6-13.8-1.6h-13.7v66.8h13.1c4.9,0,9.7-0.6,14.3-1.7c4.6-1.1,8.6-3,12.1-5.6c3.5-2.6,6.3-6,8.4-10.3
				S310.3,91.1,310.3,84.7z"/>
			<path class="st0" d="M370.2,142.1V27.9H447v23.2h-50.2v21.6h47.4v22.1h-47.4v23.7h53.1v23.6H370.2z"/>
			<path class="st0" d="M551,57.6c-2.4-3-5.5-5.4-9.3-7.2c-3.8-1.8-7.5-2.7-11-2.7c-1.8,0-3.7,0.2-5.6,0.5c-1.9,0.3-3.6,0.9-5.1,1.9
				c-1.5,0.9-2.8,2.1-3.8,3.6c-1,1.5-1.5,3.3-1.5,5.6c0,1.9,0.4,3.6,1.2,4.8c0.8,1.3,2,2.4,3.5,3.4c1.6,1,3.4,1.9,5.6,2.7
				c2.1,0.8,4.6,1.6,7.3,2.5c3.9,1.3,7.9,2.7,12.1,4.3c4.2,1.6,8,3.6,11.5,6.2s6.3,5.8,8.6,9.6c2.3,3.8,3.4,8.6,3.4,14.3
				c0,6.6-1.2,12.2-3.6,17c-2.4,4.8-5.7,8.7-9.8,11.9c-4.1,3.1-8.8,5.4-14,6.9c-5.3,1.5-10.7,2.3-16.3,2.3c-8.2,0-16.1-1.4-23.7-4.3
				c-7.6-2.8-14-6.9-19-12.2l18.1-18.4c2.8,3.4,6.5,6.3,11.1,8.6c4.6,2.3,9.1,3.5,13.6,3.5c2,0,4-0.2,6-0.6c1.9-0.4,3.6-1.1,5.1-2.1
				c1.5-1,2.6-2.3,3.5-3.9c0.9-1.6,1.3-3.5,1.3-5.8c0-2.2-0.5-4-1.6-5.5c-1.1-1.5-2.6-2.9-4.6-4.1c-2-1.2-4.5-2.4-7.4-3.4
				c-3-1-6.3-2.1-10.1-3.3c-3.7-1.2-7.2-2.6-10.7-4.2c-3.5-1.6-6.6-3.7-9.4-6.2c-2.7-2.5-5-5.6-6.6-9.2c-1.7-3.6-2.5-8-2.5-13.1
				c0-6.3,1.3-11.8,3.9-16.3c2.6-4.5,6-8.2,10.2-11.1c4.2-2.9,8.9-5,14.2-6.4c5.3-1.3,10.6-2,16-2c6.5,0,13,1.2,19.8,3.5
				c6.7,2.4,12.6,5.9,17.7,10.5L551,57.6z"/>
		</g>
		<g>
			<g>
				<g>
					<polygon class="st0" points="66,142.1 93.8,142.1 93.8,50.5 66,67 					"/>
					<polygon class="st0" points="33.4,26.7 33.4,50.5 55.4,50.5 66,50.5 93.8,50.5 126.4,50.5 126.4,26.7 					"/>
				</g>
			</g>
		</g>
	</g>
	<g>
		<polygon class="st1" points="1304.2,487.9 32.5,729 32.5,384.7 1304.2,26.2 		"/>
		<g>
			<g>
				<g>
					<path class="st2" d="M89.6,649.2L127.4,443l12.9-3.4l37.5,191.2l-11.3,2.4l-10.4-52.5l-44.6,9.9l-10.7,56.2L89.6,649.2z
						 M133.9,465.8L114,576.6l39.5-8.9L133.9,465.8z"/>
				</g>
			</g>
			<g>
				<path class="st2" d="M229.9,619.9l-33.4,6.9V425.4l33.6-8.7c8.5-2.2,16.3-2,23.3,0.5c7,2.5,13.1,7.6,18.1,15
					c5,7.4,8.9,17.4,11.6,29.5c2.7,12.1,4,26.8,4,43.5c0,16.7-1.4,32-4,45.3c-2.7,13.3-6.6,25-11.7,34.7
					c-5.1,9.7-11.2,17.5-18.2,23.3C246.2,614.3,238.3,618.1,229.9,619.9z M212.6,604.6l17-3.6c5.7-1.2,11-4,15.9-8.4
					c4.9-4.4,9.3-10.5,12.9-18c3.7-7.6,6.6-16.9,8.7-27.8c2.1-10.9,3.2-23.6,3.2-37.6c0-14.2-1.1-26.6-3.2-36.6
					c-2.1-10-5-18-8.7-23.9c-3.7-5.8-8-9.8-12.9-11.9c-4.9-2.1-10.3-2.4-15.9-1l-17,4.3V604.6z"/>
			</g>
			<path class="st2" d="M360.9,590.3l-26.5,5.5L295.3,401l22.2-5.7l30.6,167.5l0.5-0.1l31.1-183.5l22.4-5.8L360.9,590.3z"/>
			<path class="st2" d="M534,448.1c0,16.7-1.4,32.3-4.3,46.5c-2.9,14.3-7,26.9-12.4,37.7c-5.4,10.9-11.9,19.8-19.6,26.7
				c-7.6,6.9-16.2,11.4-25.6,13.3c-9.5,2-18,1.1-25.4-2.6c-7.4-3.7-13.6-9.8-18.8-18.2c-5.1-8.4-9.1-18.9-11.8-31.6
				c-2.7-12.7-4.1-27.1-4.1-43.4c0-16.3,1.3-31.3,3.9-45.1c2.6-13.8,6.5-26.1,11.7-36.9c5.1-10.8,11.4-19.8,18.9-26.9
				c7.5-7.1,16-11.9,25.5-14.4c9.4-2.4,17.9-2,25.6,1.2c7.7,3.3,14.2,9.1,19.6,17.4c5.4,8.4,9.5,19,12.4,31.8
				C532.6,416.5,534,431.3,534,448.1z M503.7,455.1c0-10.7-0.7-20.6-2.1-29.6c-1.4-9.1-3.4-16.7-6-22.8c-2.7-6.2-5.9-10.7-9.9-13.7
				c-3.9-3-8.4-3.8-13.5-2.5c-5.2,1.3-9.8,4.4-13.7,9.3c-3.9,4.9-7.1,11-9.7,18.4c-2.6,7.4-4.5,15.8-5.8,25.4
				c-1.3,9.6-1.9,19.6-1.9,30.1c0,10.5,0.6,20.3,1.9,29.2c1.3,9,3.2,16.6,5.8,22.9c2.6,6.3,5.8,10.9,9.7,14
				c3.9,3.1,8.4,4.1,13.7,2.9c5.3-1.1,9.9-4.1,13.8-8.9c3.9-4.8,7.2-10.9,9.9-18.4c2.7-7.5,4.6-16.1,5.9-25.8
				C503.1,476,503.7,465.8,503.7,455.1z"/>
			<path class="st2" d="M657.5,525.8c-8.2,7.3-18.5,12.3-31,14.9c-10.6,2.2-20.2,1.4-28.7-2.4c-8.5-3.8-15.8-10-21.8-18.7
				c-6-8.7-10.7-19.5-14-32.5c-3.3-13-5-27.7-5-44.1c0-16.6,1.7-32.3,5-46.9c3.3-14.7,8-27.7,14-39c6-11.4,13.3-20.9,21.8-28.6
				c8.5-7.7,18.1-12.9,28.7-15.6c12.2-3.2,22.4-3.2,30.6-0.1c8.3,3.1,14.9,7.9,20,14.5l-22.5,41.4c-3.1-4.1-6.6-7.2-10.5-9.1
				c-3.9-1.9-8.7-2.1-14.6-0.7c-5.5,1.4-10.2,4.3-14.2,8.7c-4,4.4-7.4,10-10.2,16.7c-2.8,6.7-4.9,14.2-6.2,22.8
				c-1.4,8.5-2,17.4-2,26.7c0,9.3,0.7,17.8,2,25.6c1.4,7.8,3.4,14.4,6.2,19.9c2.8,5.5,6.2,9.5,10.3,12c4.1,2.6,8.9,3.2,14.4,2.1
				c5.5-1.2,10.3-3.9,14.5-8.1c4.1-4.2,7.4-8.8,9.9-13.8l23.3,29.1C672.3,510,665.6,518.5,657.5,525.8z"/>
			<g>
				<path class="st2" d="M946.5,473.9c-12.6,2.6-24.3,2-34.8-1.7c-10.4-3.7-19.5-10.2-27-19.2c-7.4-9-13.3-20.5-17.5-34.2
					c-4.1-13.6-6.2-29.5-6.2-47.3c0-18,2.1-35,6.2-50.6c4.2-15.7,10-30,17.5-42.4c7.5-12.5,16.6-23.1,27-31.5
					c10.5-8.5,22.2-14.4,34.8-17.7c7.8-2,15.2-3.1,21.7-3.2c6.6-0.1,12.5,0.7,17.7,2.3c5.1,1.6,9.7,3.6,13.7,6.2
					c4,2.6,7.5,5.5,10.3,8.9l1.4,1.7l-37.6,68l-2.4-2.9c-2.4-2.8-5-5.3-8-7.3c-2.5-1.7-6.3-2-11.1-0.8c-3.4,0.8-6.4,2.6-9.1,5.4
					c-2.8,2.9-5.2,6.7-7.3,11.3c-2.1,4.7-3.7,10.3-4.8,16.5c-1.1,6.3-1.7,13.2-1.7,20.3c0,7.1,0.6,13.6,1.6,19.2
					c1.1,5.5,2.7,10.2,4.8,13.9c2.1,3.6,4.6,6.3,7.4,7.9c2.8,1.6,5.8,1.9,9.3,1.2c4-0.9,7.3-2.8,10.2-5.9c3.1-3.3,5.7-6.8,7.6-10.4
					l2.3-4.2l39.3,48.4l-1.4,2.4c-3.1,5.1-6.7,10.1-10.7,14.9c-4.1,4.8-8.8,9.2-13.9,13.2c-5.1,3.9-11,7.5-17.5,10.6
					C961.9,469.8,954.5,472.3,946.5,473.9z"/>
			</g>
			<g>
				<path class="st2" d="M1161.4,424.2l-78.3,16.3v-81.2l-56.8-147.6l84.6-21.9l11.6,58.2l12.4-64.5l87.3-22.6l-60.8,180.7V424.2z"
					/>
			</g>
		</g>
	</g>
	<g>
		<g>
			<path class="st2" d="M852.3,488.8l-56.1,11.7l-7.8-37.8l-34,7.4l-7.6,40.7l-51.8,10.8l47-236.2l61.2-15.9L852.3,488.8z
				 M761.4,418.7l19.6-4.5l-9.6-55.8L761.4,418.7z"/>
		</g>
	</g>
</g>
</svg>
